<svg xmlns="http://www.w3.org/2000/svg" viewBox="0 0 1440 320"><path fill="#dc1431" fill-opacity="1" d="M 0 160 L 34.3 138.7 C 68.6 117 137 75 206 74.7 C 274.3 75 343 117 411 117.3 C 480 117 549 75 617 80 C 685.7 85 754 139 823 186.7 C 895.4 235 960 277 1029 266.7 C 1097.1 256 1166 192 1234 186.7 C 1302.9 181 1371 235 1406 261.3 L 1440 288 L 1440 0 L 1405.7 0 C 1371.4 0 1303 0 1234 0 C 1165.7 0 1097 0 1029 0 C 960 0 891 0 823 0 C 754.3 0 686 0 617 0 C 548.6 0 480 0 411 0 C 342.9 0 274 0 206 0 C 137.1 0 69 0 34 0 L 0 0 Z"></path></svg>