<svg width="480" height="480" xmlns="http://www.w3.org/2000/svg" xmlns:xlink="http://www.w3.org/1999/xlink" xml:space="preserve" overflow="hidden"><g transform="translate(-400 -120)"><path d="M600.273 247.49C600.273 252.421 596.275 256.419 591.344 256.419 586.413 256.419 582.415 252.421 582.415 247.49 582.415 242.559 586.413 238.561 591.344 238.561 596.275 238.561 600.273 242.559 600.273 247.49Z" fill="#D2D2D2"/><path d="M785 478.541C785 483.472 781.002 487.47 776.071 487.47 771.14 487.47 767.142 483.472 767.142 478.541 767.142 473.61 771.14 469.612 776.071 469.612 781.002 469.612 785 473.61 785 478.541Z" fill="#F2F2F2"/><path d="M769.929 376.965C769.929 381.896 765.931 385.894 761 385.894 756.069 385.894 752.071 381.896 752.071 376.965 752.071 372.034 756.069 368.036 761 368.036 765.931 368.036 769.929 372.034 769.929 376.965Z" fill="#D2D2D2"/><path d="M752.07 430.541C752.07 435.472 748.072 439.47 743.141 439.47 738.21 439.47 734.212 435.472 734.212 430.541 734.212 425.61 738.21 421.612 743.141 421.612 748.072 421.612 752.07 425.61 752.07 430.541Z" fill="#737373"/><path d="M662.778 439.47C662.778 444.401 658.78 448.399 653.849 448.399 648.918 448.399 644.92 444.401 644.92 439.47 644.92 434.539 648.918 430.541 653.849 430.541 658.78 430.541 662.778 434.539 662.778 439.47Z" fill="#737373"/><path d="M653.848 269.813C653.848 274.744 649.85 278.742 644.919 278.742 639.988 278.742 635.99 274.744 635.99 269.813 635.99 264.882 639.988 260.884 644.919 260.884 649.85 260.884 653.848 264.882 653.848 269.813Z" fill="#F2F2F2"/><path d="M645 302.541C645 307.472 641.002 311.47 636.071 311.47 631.14 311.47 627.142 307.472 627.142 302.541 627.142 297.61 631.14 293.612 636.071 293.612 641.002 293.612 645 297.61 645 302.541Z" fill="#737373"/><path d="M511.57 269.465C511.57 274.396 507.572 278.394 502.641 278.394 497.71 278.394 493.712 274.396 493.712 269.465 493.712 264.534 497.71 260.536 502.641 260.536 507.572 260.536 511.57 264.534 511.57 269.465Z" fill="#F2F2F2"/><path d="M599.002 290.401C599.002 295.332 595.004 299.33 590.073 299.33 585.142 299.33 581.144 295.332 581.144 290.401 581.144 285.47 585.142 281.472 590.073 281.472 595.004 281.472 599.002 285.47 599.002 290.401Z" fill="#505050"/><path d="M710.859 292.888C710.859 297.819 706.861 301.817 701.93 301.817 696.999 301.817 693.001 297.819 693.001 292.888 693.001 287.957 696.999 283.959 701.93 283.959 706.861 283.959 710.859 287.957 710.859 292.888Z" fill="#F2F2F2"/><path d="M750.094 333.507C750.094 338.438 746.096 342.436 741.165 342.436 736.234 342.436 732.236 338.438 732.236 333.507 732.236 328.576 736.234 324.578 741.165 324.578 746.096 324.578 750.094 328.576 750.094 333.507Z" fill="#505050"/><path d="M716.699 416.8C716.699 421.731 712.701 425.729 707.77 425.729 702.839 425.729 698.841 421.731 698.841 416.8 698.841 411.869 702.839 407.871 707.77 407.871 712.701 407.871 716.699 411.869 716.699 416.8Z" fill="#F2F2F2"/><path d="M562.16 346.226C562.16 351.157 558.162 355.155 553.231 355.155 548.3 355.155 544.302 351.157 544.302 346.226 544.302 341.295 548.3 337.297 553.231 337.297 558.162 337.297 562.16 341.295 562.16 346.226Z" fill="#505050"/><path d="M536.011 241.931C536.011 246.862 532.013 250.86 527.082 250.86 522.151 250.86 518.153 246.862 518.153 241.931 518.153 237 522.151 233.002 527.082 233.002 532.013 233.002 536.011 237 536.011 241.931Z" fill="#737373"/><path d="M658.313 381.43C658.313 386.361 654.315 390.359 649.384 390.359 644.453 390.359 640.455 386.361 640.455 381.43 640.455 376.499 644.453 372.501 649.384 372.501 654.315 372.501 658.313 376.499 658.313 381.43Z" fill="#D2D2D2"/><path d="M720.818 327.854C720.818 332.785 716.82 336.783 711.889 336.783 706.958 336.783 702.96 332.785 702.96 327.854 702.96 322.923 706.958 318.925 711.889 318.925 716.82 318.925 720.818 322.923 720.818 327.854Z" fill="#505050"/><path d="M702.959 372.5C702.959 377.431 698.961 381.429 694.03 381.429 689.099 381.429 685.101 377.431 685.101 372.5 685.101 367.569 689.099 363.571 694.03 363.571 698.961 363.571 702.959 367.569 702.959 372.5Z" fill="#D2D2D2"/><path d="M729.748 350.177C729.748 352.643 727.749 354.642 725.283 354.642 722.817 354.642 720.818 352.643 720.818 350.177 720.818 347.711 722.817 345.712 725.283 345.712 727.749 345.712 729.748 347.711 729.748 350.177Z" fill="#505050"/><path d="M680.637 327.854C680.637 330.32 678.638 332.319 676.172 332.319 673.706 332.319 671.707 330.32 671.707 327.854 671.707 325.388 673.706 323.389 676.172 323.389 678.638 323.389 680.637 325.388 680.637 327.854Z" fill="#505050"/><path d="M734.212 301.066C734.212 303.532 732.213 305.531 729.747 305.531 727.281 305.531 725.282 303.532 725.282 301.066 725.282 298.6 727.281 296.601 729.747 296.601 732.213 296.601 734.212 298.6 734.212 301.066Z" fill="#F2F2F2"/><path d="M653.849 412.682C653.849 415.148 651.85 417.147 649.384 417.147 646.918 417.147 644.919 415.148 644.919 412.682 644.919 410.216 646.918 408.217 649.384 408.217 651.85 408.217 653.849 410.216 653.849 412.682Z" fill="#505050"/><path d="M676.172 381.43C676.172 383.896 674.173 385.895 671.707 385.895 669.241 385.895 667.242 383.896 667.242 381.43 667.242 378.964 669.241 376.965 671.707 376.965 674.173 376.965 676.172 378.964 676.172 381.43Z" fill="#505050"/><path d="M676.172 408.217C676.172 410.683 674.173 412.682 671.707 412.682 669.241 412.682 667.242 410.683 667.242 408.217 667.242 405.751 669.241 403.752 671.707 403.752 674.173 403.752 676.172 405.751 676.172 408.217Z" fill="#505050"/><path d="M694.031 350.177C694.031 352.643 692.032 354.642 689.566 354.642 687.1 354.642 685.101 352.643 685.101 350.177 685.101 347.711 687.1 345.712 689.566 345.712 692.032 345.712 694.031 347.711 694.031 350.177Z" fill="#505050"/></g></svg>