<svg width="480" height="480" xmlns="http://www.w3.org/2000/svg" xmlns:xlink="http://www.w3.org/1999/xlink" xml:space="preserve" overflow="hidden"><g transform="translate(-52 -99)"><path d="M435.498 484.407 459.869 460.036 464.249 452.828 428.291 488.786 435.498 484.407Z" fill="#D2D2D2"/><path d="M416.225 494.251 469.712 440.764 471.158 436.49 411.95 495.698 416.225 494.251Z" fill="#D2D2D2"/><path d="M403.082 497.967 473.428 427.621C473.658 426.477 473.857 425.329 474.043 424.178L399.64 498.581C400.79 498.396 401.938 498.197 403.082 497.967Z" fill="#D2D2D2"/><path d="M392.15 499.471 474.932 416.69C475.01 415.682 475.085 414.674 475.129 413.665L389.125 499.669C390.134 499.624 391.142 499.548 392.15 499.471Z" fill="#D2D2D2"/><path d="M382.497 499.696 475.157 407.036C475.13 406.132 475.093 405.229 475.039 404.326L379.787 499.578C380.689 499.632 381.593 499.669 382.497 499.696Z" fill="#D2D2D2"/><path d="M373.756 499.009 474.47 398.295C474.364 397.467 474.251 396.64 474.122 395.815L371.275 498.661C372.101 498.79 372.928 498.903 373.756 499.009Z" fill="#D2D2D2"/><path d="M365.727 497.609 473.07 390.266C472.9 389.497 472.737 388.727 472.547 387.961L363.422 497.086C364.187 497.276 364.958 497.439 365.727 497.609Z" fill="#D2D2D2"/><path d="M358.279 495.629 471.09 382.819C470.866 382.105 470.642 381.39 470.4 380.681L356.141 494.939C356.851 495.181 357.565 495.405 358.279 495.629Z" fill="#D2D2D2"/><path d="M351.323 493.157 468.618 375.862C468.349 375.199 468.047 374.548 467.762 373.89L349.351 492.3C350.008 492.586 350.66 492.888 351.323 493.157Z" fill="#D2D2D2"/><path d="M344.854 490.198 465.659 369.392C465.345 368.765 465.037 368.137 464.707 367.516L342.978 489.246C343.598 489.576 344.227 489.884 344.854 490.198Z" fill="#D2D2D2"/><path d="M338.772 486.852 462.314 363.31C461.961 362.725 461.593 362.148 461.226 361.57L337.031 485.765C337.609 486.132 338.187 486.5 338.772 486.852Z" fill="#D2D2D2"/><path d="M333.085 483.11 458.571 357.624C458.179 357.075 457.789 356.525 457.384 355.983L331.444 481.923C331.987 482.328 332.536 482.719 333.085 483.11Z" fill="#D2D2D2"/><path d="M452.837 351.103 326.235 477.705C326.74 478.144 327.244 478.585 327.756 479.012L454.251 352.517 452.837 351.103Z" fill="#D2D2D2"/><path d="M448.109 346.402 321.353 473.159C321.432 473.238 321.504 473.322 321.583 473.401 321.978 473.796 322.39 474.163 322.791 474.549L449.524 347.816 448.109 346.402Z" fill="#D2D2D2"/><path d="M443.382 341.701 316.843 468.24C317.278 468.748 317.701 469.262 318.149 469.762L444.796 343.115 443.382 341.701Z" fill="#D2D2D2"/><path d="M313.882 464.601 440.061 338.422C439.529 338.012 439.006 337.584 438.467 337.188L312.647 463.008C313.044 463.546 313.472 464.069 313.882 464.601Z" fill="#D2D2D2"/><path d="M309.943 459.112 434.573 334.482C433.999 334.105 433.413 333.757 432.832 333.394L308.856 457.372C309.218 457.952 309.567 458.539 309.943 459.112Z" fill="#D2D2D2"/><path d="M306.412 453.216 428.677 330.951C428.069 330.615 427.466 330.268 426.852 329.948L305.408 451.391C305.729 452.005 306.076 452.608 306.412 453.216Z" fill="#D2D2D2"/><path d="M303.253 446.946 422.406 327.792C421.752 327.496 421.093 327.215 420.434 326.935L302.397 444.974C302.677 445.633 302.957 446.292 303.253 446.946Z" fill="#D2D2D2"/><path d="M300.533 440.238 415.699 325.072C414.999 324.821 414.295 324.587 413.59 324.353L299.814 438.129C300.047 438.834 300.281 439.538 300.533 440.238Z" fill="#D2D2D2"/><path d="M298.297 433.045 408.506 322.836C407.759 322.637 407.014 322.43 406.263 322.251L297.712 430.803C297.892 431.554 298.098 432.299 298.297 433.045Z" fill="#D2D2D2"/><path d="M296.594 425.32 400.781 321.133C399.975 320.992 399.17 320.843 398.362 320.724L296.186 422.901C296.304 423.71 296.453 424.514 296.594 425.32Z" fill="#D2D2D2"/><path d="M295.531 416.956 392.416 320.07C391.537 320 390.658 319.925 389.777 319.881L295.342 414.317C295.386 415.198 295.461 416.077 295.531 416.956Z" fill="#D2D2D2"/><path d="M295.269 407.79 383.251 319.808C382.275 319.829 381.3 319.853 380.326 319.905L295.367 404.864C295.313 405.839 295.29 406.815 295.269 407.79Z" fill="#D2D2D2"/><path d="M296.061 397.57 373.031 320.601C371.908 320.754 370.789 320.937 369.671 321.133L296.593 394.211C296.397 395.328 296.214 396.447 296.061 397.57Z" fill="#D2D2D2"/><path d="M298.509 385.694 361.155 323.047C359.796 323.423 358.445 323.832 357.101 324.273L299.734 381.64C299.293 382.984 298.884 384.335 298.509 385.694Z" fill="#D2D2D2"/><path d="M304.2 370.574 346.035 328.739 340.023 331.923 307.384 364.562 304.2 370.574Z" fill="#D2D2D2"/><path d="M185.77 272.77 185.77 272.77C212.13 246.41 254.869 246.41 281.229 272.77L281.229 272.77C307.589 299.13 307.589 341.869 281.229 368.229L281.229 368.229C254.869 394.589 212.13 394.589 185.77 368.229L185.77 368.229C159.41 341.869 159.41 299.131 185.77 272.77Z" fill="#F2F2F2"/><path d="M322.548 438.344 322.548 438.344C302.045 417.841 302.045 384.6 322.548 364.098L322.548 364.098C343.051 343.595 376.292 343.595 396.794 364.098L396.794 364.098C417.297 384.601 417.297 417.842 396.794 438.344L396.794 438.344C376.292 458.846 343.051 458.846 322.548 438.344Z" fill="#DC1431"/><path d="M368.732 294 368.268 294C347.685 294 331 277.315 331 256.732L331 256.268C331 235.685 347.685 219 368.268 219L368.732 219C389.315 219 406 235.685 406 256.268L406 256.732C406 277.315 389.315 294 368.732 294Z" fill="#D2D2D2"/><path d="M304.485 518 303.516 518C295.499 518 289.001 511.501 289.001 503.484L289.001 502.515C289.001 494.498 295.5 488 303.516 488L304.485 488C312.502 488 319 494.499 319 502.515L319 503.484C319 511.501 312.501 518 304.485 518Z" fill="#E6E6E6"/><path d="M204.625 367.75C204.625 370.857 202.107 373.375 199 373.375 195.893 373.375 193.375 370.857 193.375 367.75 193.375 364.643 195.893 362.125 199 362.125 202.107 362.125 204.625 364.643 204.625 367.75Z" fill="#D2D2D2"/><path d="M204.625 339.625C204.625 342.732 202.107 345.25 199 345.25 195.893 345.25 193.375 342.732 193.375 339.625 193.375 336.518 195.893 334 199 334 202.107 334 204.625 336.518 204.625 339.625Z" fill="#D2D2D2"/><path d="M182.787 342.5C182.787 345.607 180.269 348.125 177.162 348.125 174.055 348.125 171.537 345.607 171.537 342.5 171.537 339.393 174.055 336.875 177.162 336.875 180.269 336.875 182.787 339.393 182.787 342.5Z" fill="#D2D2D2"/><path d="M162.438 350.929C162.438 354.036 159.92 356.554 156.813 356.554 153.706 356.554 151.188 354.036 151.188 350.929 151.188 347.822 153.706 345.304 156.813 345.304 159.92 345.304 162.438 347.822 162.438 350.929Z" fill="#D2D2D2"/><path d="M144.963 364.338C144.963 367.445 142.445 369.963 139.338 369.963 136.231 369.963 133.713 367.445 133.713 364.338 133.713 361.231 136.231 358.713 139.338 358.713 142.445 358.713 144.963 361.231 144.963 364.338Z" fill="#D2D2D2"/><path d="M131.554 381.813C131.554 384.92 129.036 387.438 125.929 387.438 122.822 387.438 120.304 384.92 120.304 381.813 120.304 378.706 122.822 376.188 125.929 376.188 129.036 376.188 131.554 378.706 131.554 381.813Z" fill="#D2D2D2"/><path d="M123.125 402.162C123.125 405.269 120.607 407.787 117.5 407.787 114.393 407.787 111.875 405.269 111.875 402.162 111.875 399.055 114.393 396.537 117.5 396.537 120.607 396.537 123.125 399.055 123.125 402.162Z" fill="#D2D2D2"/><path d="M120.25 424C120.25 427.107 117.732 429.625 114.625 429.625 111.518 429.625 109 427.107 109 424 109 420.893 111.518 418.375 114.625 418.375 117.732 418.375 120.25 420.893 120.25 424Z" fill="#D2D2D2"/><path d="M123.125 445.838C123.125 448.945 120.607 451.463 117.5 451.463 114.393 451.463 111.875 448.945 111.875 445.838 111.875 442.731 114.393 440.213 117.5 440.213 120.607 440.213 123.125 442.731 123.125 445.838Z" fill="#D2D2D2"/><path d="M131.554 466.188C131.554 469.295 129.036 471.813 125.929 471.813 122.822 471.813 120.304 469.295 120.304 466.188 120.304 463.081 122.822 460.563 125.929 460.563 129.036 460.563 131.554 463.081 131.554 466.188Z" fill="#D2D2D2"/><path d="M144.963 483.662C144.963 486.769 142.445 489.287 139.338 489.287 136.231 489.287 133.713 486.769 133.713 483.662 133.713 480.555 136.231 478.037 139.338 478.037 142.445 478.037 144.963 480.555 144.963 483.662Z" fill="#D2D2D2"/><path d="M162.438 497.071C162.438 500.178 159.92 502.696 156.813 502.696 153.706 502.696 151.188 500.178 151.188 497.071 151.188 493.964 153.706 491.446 156.813 491.446 159.92 491.446 162.438 493.964 162.438 497.071Z" fill="#D2D2D2"/><path d="M182.787 505.5C182.787 508.607 180.269 511.125 177.162 511.125 174.055 511.125 171.537 508.607 171.537 505.5 171.537 502.393 174.055 499.875 177.162 499.875 180.269 499.875 182.787 502.393 182.787 505.5Z" fill="#D2D2D2"/><path d="M204.625 508.375C204.625 511.482 202.107 514 199 514 195.893 514 193.375 511.482 193.375 508.375 193.375 505.268 195.893 502.75 199 502.75 202.107 502.75 204.625 505.268 204.625 508.375Z" fill="#D2D2D2"/><path d="M226.463 505.5C226.463 508.607 223.945 511.125 220.838 511.125 217.731 511.125 215.213 508.607 215.213 505.5 215.213 502.393 217.731 499.875 220.838 499.875 223.945 499.875 226.463 502.393 226.463 505.5Z" fill="#D2D2D2"/><path d="M246.813 497.071C246.813 500.178 244.295 502.696 241.188 502.696 238.081 502.696 235.563 500.178 235.563 497.071 235.563 493.964 238.081 491.446 241.188 491.446 244.295 491.446 246.813 493.964 246.813 497.071Z" fill="#D2D2D2"/><path d="M264.287 483.662C264.287 486.769 261.769 489.287 258.662 489.287 255.555 489.287 253.037 486.769 253.037 483.662 253.037 480.555 255.555 478.037 258.662 478.037 261.769 478.037 264.287 480.555 264.287 483.662Z" fill="#D2D2D2"/><path d="M277.696 466.188C277.696 469.295 275.178 471.813 272.071 471.813 268.964 471.813 266.446 469.295 266.446 466.188 266.446 463.081 268.964 460.563 272.071 460.563 275.178 460.563 277.696 463.081 277.696 466.188Z" fill="#D2D2D2"/><path d="M286.125 445.838C286.125 448.945 283.607 451.463 280.5 451.463 277.393 451.463 274.875 448.945 274.875 445.838 274.875 442.731 277.393 440.213 280.5 440.213 283.607 440.213 286.125 442.731 286.125 445.838Z" fill="#D2D2D2"/><path d="M289 424C289 427.107 286.482 429.625 283.375 429.625 280.268 429.625 277.75 427.107 277.75 424 277.75 420.893 280.268 418.375 283.375 418.375 286.482 418.375 289 420.893 289 424Z" fill="#D2D2D2"/><path d="M286.125 402.162C286.125 405.269 283.607 407.787 280.5 407.787 277.393 407.787 274.875 405.269 274.875 402.162 274.875 399.055 277.393 396.537 280.5 396.537 283.607 396.537 286.125 399.055 286.125 402.162Z" fill="#D2D2D2"/><path d="M277.696 381.813C277.696 384.92 275.178 387.438 272.071 387.438 268.964 387.438 266.446 384.92 266.446 381.813 266.446 378.706 268.964 376.188 272.071 376.188 275.178 376.188 277.696 378.706 277.696 381.813Z" fill="#D2D2D2"/><path d="M264.287 364.338C264.287 367.445 261.769 369.963 258.662 369.963 255.555 369.963 253.037 367.445 253.037 364.338 253.037 361.231 255.555 358.713 258.662 358.713 261.769 358.713 264.287 361.231 264.287 364.338Z" fill="#D2D2D2"/><path d="M246.813 350.929C246.813 354.036 244.295 356.554 241.188 356.554 238.081 356.554 235.563 354.036 235.563 350.929 235.563 347.822 238.081 345.304 241.188 345.304 244.295 345.304 246.813 347.822 246.813 350.929Z" fill="#D2D2D2"/><path d="M226.463 342.5C226.463 345.607 223.945 348.125 220.838 348.125 217.731 348.125 215.213 345.607 215.213 342.5 215.213 339.393 217.731 336.875 220.838 336.875 223.945 336.875 226.463 339.393 226.463 342.5Z" fill="#D2D2D2"/><path d="M176.5 375.286C176.5 378.393 173.982 380.911 170.875 380.911 167.768 380.911 165.25 378.393 165.25 375.286 165.25 372.179 167.768 369.661 170.875 369.661 173.982 369.661 176.5 372.179 176.5 375.286Z" fill="#D2D2D2"/><path d="M155.911 395.875C155.911 398.982 153.393 401.5 150.286 401.5 147.179 401.5 144.661 398.982 144.661 395.875 144.661 392.768 147.179 390.25 150.286 390.25 153.393 390.25 155.911 392.768 155.911 395.875Z" fill="#D2D2D2"/><path d="M148.375 424C148.375 427.107 145.857 429.625 142.75 429.625 139.643 429.625 137.125 427.107 137.125 424 137.125 420.893 139.643 418.375 142.75 418.375 145.857 418.375 148.375 420.893 148.375 424Z" fill="#D2D2D2"/><path d="M155.911 452.125C155.911 455.232 153.393 457.75 150.286 457.75 147.179 457.75 144.661 455.232 144.661 452.125 144.661 449.018 147.179 446.5 150.286 446.5 153.393 446.5 155.911 449.018 155.911 452.125Z" fill="#D2D2D2"/><path d="M176.5 472.714C176.5 475.821 173.982 478.339 170.875 478.339 167.768 478.339 165.25 475.821 165.25 472.714 165.25 469.607 167.768 467.089 170.875 467.089 173.982 467.089 176.5 469.607 176.5 472.714Z" fill="#D2D2D2"/><path d="M204.625 480.25C204.625 483.357 202.107 485.875 199 485.875 195.893 485.875 193.375 483.357 193.375 480.25 193.375 477.143 195.893 474.625 199 474.625 202.107 474.625 204.625 477.143 204.625 480.25Z" fill="#D2D2D2"/><path d="M232.75 472.714C232.75 475.821 230.232 478.339 227.125 478.339 224.018 478.339 221.5 475.821 221.5 472.714 221.5 469.607 224.018 467.089 227.125 467.089 230.232 467.089 232.75 469.607 232.75 472.714Z" fill="#D2D2D2"/><path d="M253.339 452.125C253.339 455.232 250.821 457.75 247.714 457.75 244.607 457.75 242.089 455.232 242.089 452.125 242.089 449.018 244.607 446.5 247.714 446.5 250.821 446.5 253.339 449.018 253.339 452.125Z" fill="#D2D2D2"/><path d="M260.875 424C260.875 427.107 258.357 429.625 255.25 429.625 252.143 429.625 249.625 427.107 249.625 424 249.625 420.893 252.143 418.375 255.25 418.375 258.357 418.375 260.875 420.893 260.875 424Z" fill="#D2D2D2"/><path d="M253.339 395.875C253.339 398.982 250.821 401.5 247.714 401.5 244.607 401.5 242.089 398.982 242.089 395.875 242.089 392.768 244.607 390.25 247.714 390.25 250.821 390.25 253.339 392.768 253.339 395.875Z" fill="#D2D2D2"/><path d="M232.75 375.286C232.75 378.393 230.232 380.911 227.125 380.911 224.018 380.911 221.5 378.393 221.5 375.286 221.5 372.179 224.018 369.661 227.125 369.661 230.232 369.661 232.75 372.179 232.75 375.286Z" fill="#D2D2D2"/><path d="M204.625 395.875C204.625 398.982 202.107 401.5 199 401.5 195.893 401.5 193.375 398.982 193.375 395.875 193.375 392.768 195.893 390.25 199 390.25 202.107 390.25 204.625 392.768 204.625 395.875Z" fill="#D2D2D2"/><path d="M180.268 409.938C180.268 413.045 177.75 415.563 174.643 415.563 171.536 415.563 169.018 413.045 169.018 409.938 169.018 406.831 171.536 404.313 174.643 404.313 177.75 404.313 180.268 406.831 180.268 409.938Z" fill="#D2D2D2"/><path d="M180.268 438.063C180.268 441.17 177.75 443.688 174.643 443.688 171.536 443.688 169.018 441.17 169.018 438.063 169.018 434.956 171.536 432.438 174.643 432.438 177.75 432.438 180.268 434.956 180.268 438.063Z" fill="#D2D2D2"/><path d="M204.625 452.125C204.625 455.232 202.107 457.75 199 457.75 195.893 457.75 193.375 455.232 193.375 452.125 193.375 449.018 195.893 446.5 199 446.5 202.107 446.5 204.625 449.018 204.625 452.125Z" fill="#D2D2D2"/><path d="M228.982 438.063C228.982 441.17 226.464 443.688 223.357 443.688 220.25 443.688 217.732 441.17 217.732 438.063 217.732 434.956 220.25 432.438 223.357 432.438 226.464 432.438 228.982 434.956 228.982 438.063Z" fill="#D2D2D2"/><path d="M204.624 423.999C204.624 427.106 202.106 429.624 198.999 429.624 195.892 429.624 193.374 427.106 193.374 423.999 193.374 420.892 195.892 418.374 198.999 418.374 202.106 418.374 204.624 420.892 204.624 423.999Z" fill="#D2D2D2"/><path d="M228.982 409.938C228.982 413.045 226.464 415.563 223.357 415.563 220.25 415.563 217.732 413.045 217.732 409.938 217.732 406.831 220.25 404.313 223.357 404.313 226.464 404.313 228.982 406.831 228.982 409.938Z" fill="#D2D2D2"/><path d="M285 338.5C235.098 338.5 194.5 297.902 194.5 248 194.5 198.098 235.098 157.5 285 157.5 334.902 157.5 375.5 198.098 375.5 248 375.5 297.902 334.902 338.5 285 338.5ZM285 158.5C235.649 158.5 195.5 198.649 195.5 248 195.5 297.351 235.649 337.5 285 337.5 334.351 337.5 374.5 297.351 374.5 248 374.5 198.649 334.351 158.5 285 158.5Z" fill="#D2D2D2"/><path d="M285 332.269C238.533 332.269 200.73 294.466 200.73 248 200.73 201.534 238.533 163.731 285 163.731 331.467 163.731 369.27 201.534 369.27 248 369.27 294.466 331.467 332.269 285 332.269ZM285 164.731C239.085 164.731 201.73 202.085 201.73 248 201.73 293.915 239.084 331.269 285 331.269 330.916 331.269 368.27 293.915 368.27 248 368.27 202.085 330.915 164.731 285 164.731Z" fill="#D2D2D2"/><path d="M285 326.039C241.97 326.039 206.962 291.031 206.962 248 206.962 204.969 241.97 169.961 285 169.961 328.03 169.961 363.038 204.969 363.038 248 363.038 291.031 328.03 326.039 285 326.039ZM285 170.961C242.521 170.961 207.962 205.521 207.962 248 207.962 290.479 242.522 325.039 285 325.039 327.478 325.039 362.038 290.479 362.038 248 362.038 205.521 327.479 170.961 285 170.961Z" fill="#D2D2D2"/><path d="M285 319.808C245.405 319.808 213.192 287.595 213.192 248 213.192 208.405 245.405 176.192 285 176.192 324.595 176.192 356.808 208.405 356.808 248 356.808 287.595 324.595 319.808 285 319.808ZM285 177.192C245.956 177.192 214.192 208.956 214.192 248 214.192 287.044 245.956 318.808 285 318.808 324.044 318.808 355.808 287.044 355.808 248 355.808 208.956 324.044 177.192 285 177.192Z" fill="#D2D2D2"/><path d="M285 313.577C248.841 313.577 219.423 284.159 219.423 248 219.423 211.841 248.841 182.423 285 182.423 321.159 182.423 350.577 211.841 350.577 248 350.577 284.159 321.159 313.577 285 313.577ZM285 183.423C249.392 183.423 220.423 212.392 220.423 248 220.423 283.608 249.392 312.577 285 312.577 320.608 312.577 349.577 283.608 349.577 248 349.577 212.392 320.608 183.423 285 183.423Z" fill="#D2D2D2"/><path d="M285 307.346C252.276 307.346 225.654 280.723 225.654 248 225.654 215.277 252.276 188.654 285 188.654 317.724 188.654 344.346 215.277 344.346 248 344.346 280.723 317.724 307.346 285 307.346ZM285 189.654C252.828 189.654 226.654 215.828 226.654 248 226.654 280.172 252.828 306.346 285 306.346 317.172 306.346 343.346 280.172 343.346 248 343.346 215.828 317.172 189.654 285 189.654Z" fill="#D2D2D2"/><path d="M285 301.115C255.712 301.115 231.885 277.288 231.885 248 231.885 218.712 255.712 194.885 285 194.885 314.288 194.885 338.115 218.712 338.115 248 338.115 277.288 314.288 301.115 285 301.115ZM285 195.885C256.264 195.885 232.885 219.264 232.885 248 232.885 276.736 256.264 300.115 285 300.115 313.736 300.115 337.115 276.736 337.115 248 337.115 219.264 313.736 195.885 285 195.885Z" fill="#D2D2D2"/><path d="M285 294.885C259.147 294.885 238.115 273.853 238.115 248 238.115 222.147 259.147 201.115 285 201.115 310.853 201.115 331.885 222.147 331.885 248 331.885 273.853 310.853 294.885 285 294.885ZM285 202.115C259.699 202.115 239.115 222.699 239.115 248 239.115 273.301 259.699 293.885 285 293.885 310.301 293.885 330.885 273.301 330.885 248 330.885 222.699 310.301 202.115 285 202.115Z" fill="#D2D2D2"/><path d="M285 288.654C262.583 288.654 244.346 270.417 244.346 248 244.346 225.583 262.583 207.346 285 207.346 307.417 207.346 325.654 225.583 325.654 248 325.654 270.417 307.417 288.654 285 288.654ZM285 208.346C263.135 208.346 245.346 226.135 245.346 248 245.346 269.865 263.135 287.654 285 287.654 306.865 287.654 324.654 269.865 324.654 248 324.654 226.135 306.865 208.346 285 208.346Z" fill="#D2D2D2"/><path d="M285 282.423C266.02 282.423 250.577 266.981 250.577 248 250.577 229.019 266.02 213.577 285 213.577 303.98 213.577 319.423 229.019 319.423 248 319.423 266.981 303.98 282.423 285 282.423ZM285 214.577C266.57 214.577 251.577 229.571 251.577 248 251.577 266.429 266.57 281.423 285 281.423 303.43 281.423 318.423 266.429 318.423 248 318.423 229.571 303.43 214.577 285 214.577Z" fill="#D2D2D2"/><path d="M285 276.192C269.455 276.192 256.808 263.545 256.808 248 256.808 232.455 269.455 219.808 285 219.808 300.545 219.808 313.192 232.455 313.192 248 313.192 263.545 300.545 276.192 285 276.192ZM285 220.808C270.006 220.808 257.808 233.006 257.808 248 257.808 262.994 270.006 275.192 285 275.192 299.994 275.192 312.192 262.994 312.192 248 312.192 233.006 299.994 220.808 285 220.808Z" fill="#D2D2D2"/><path d="M285 269.961C272.891 269.961 263.038 260.109 263.038 248 263.038 235.891 272.891 226.039 285 226.039 297.109 226.039 306.962 235.891 306.962 248 306.962 260.109 297.109 269.961 285 269.961ZM285 227.039C273.441 227.039 264.038 236.442 264.038 248 264.038 259.558 273.441 268.961 285 268.961 296.559 268.961 305.962 259.558 305.962 248 305.962 236.442 296.559 227.039 285 227.039Z" fill="#D2D2D2"/><path d="M285 263.731C276.326 263.731 269.27 256.674 269.27 248 269.27 239.326 276.327 232.269 285 232.269 293.673 232.269 300.73 239.326 300.73 248 300.73 256.674 293.674 263.731 285 263.731ZM285 233.269C276.878 233.269 270.27 239.877 270.27 248 270.27 256.123 276.878 262.731 285 262.731 293.122 262.731 299.73 256.123 299.73 248 299.73 239.877 293.122 233.269 285 233.269Z" fill="#D2D2D2"/><path d="M285 257.5C279.762 257.5 275.5 253.238 275.5 248 275.5 242.762 279.762 238.5 285 238.5 290.238 238.5 294.5 242.762 294.5 248 294.5 253.238 290.238 257.5 285 257.5ZM285 239.5C280.313 239.5 276.5 243.313 276.5 248 276.5 252.687 280.313 256.5 285 256.5 289.687 256.5 293.5 252.687 293.5 248 293.5 243.313 289.687 239.5 285 239.5Z" fill="#D2D2D2"/></g></svg>